<svg width="268" height="180" viewBox="0 0 268 180" fill="none" xmlns="http://www.w3.org/2000/svg">
<g clip-path="url(#clip0_1_19)">
<path d="M78.9344 0.126035C76.9244 0.33607 71.9831 1.30223 69.4916 1.97434C61.64 4.1377 48.5959 9.72463 45.895 12.056C43.4034 14.2194 41.9378 16.4878 40.9328 19.8273C40.2 22.2637 39.3206 23.2509 37.2059 24.091C34.4841 25.1412 34.2747 25.4352 30.7362 33.9207C23.115 52.1727 18.0691 65.3839 13.3581 79.3932C-2.17751 125.706 -4.14563 156.245 7.45374 171.725C12.0809 177.879 20.0372 181.029 27.6794 179.685C29.7941 179.328 32.7462 178.32 34.3375 177.417C37.0594 175.904 38.5041 174.497 53.8303 158.471C71.0619 140.45 70.9572 140.534 75.8984 138.098C79.9603 136.103 83.1219 135.221 87.6234 134.821C89.0681 134.695 106.781 134.632 135.675 134.674C178.367 134.737 181.549 134.779 183.266 135.116C188.689 136.208 193.295 138.245 197.378 141.312C198.09 141.858 205.648 149.566 214.128 158.45C224.492 169.288 230.103 175.001 231.15 175.778C240.362 182.688 253.721 180.84 260.525 171.746C267.037 163.05 269.298 149.482 267.246 131.272C264.566 107.391 254.914 76.0327 237.306 34.0467C233.809 25.7083 233.516 25.2252 231.443 24.3851C228.554 23.2089 227.674 22.3057 227.025 19.8063C226.23 16.5928 223.801 13.1902 221.016 11.2789C218.65 9.68262 209.019 5.41892 203.512 3.57061C194.677 0.588112 187.328 -0.525073 181.779 0.294063C177.529 0.924168 174.619 2.18438 171.708 4.62078C168.945 6.95217 173.342 6.72113 134.126 6.72113C108.875 6.72113 99.5997 6.65812 99.0134 6.4901C98.5738 6.34307 97.6734 5.77598 97.0034 5.18788C92.8159 1.59628 89.1728 0.27306 83.1219 0.126035C81.3422 0.0840283 79.4578 0.0840283 78.9344 0.126035Z" fill="white"/>
<ellipse cx="133.5" cy="107" rx="24.5" ry="12" fill="#FFC35D"/>
<rect x="41" y="52.2226" width="64.0011" height="20.4448" fill="#CCCCCC"/>
<rect x="62.3337" y="94.0011" width="64.0011" height="20.4448" transform="rotate(-89.9513 62.3337 94.0011)" fill="#CCCCCC"/>
<path d="M49.0001 62.445L53.6669 58.211V66.679L49.0001 62.445Z" fill="white"/>
<path d="M97.0009 62.445L92.3342 66.679V58.211L97.0009 62.445Z" fill="white"/>
<path d="M72.5629 86.0096L68.3329 81.3393L76.8008 81.3465L72.5629 86.0096Z" fill="white"/>
<path d="M72.6037 38.0088L76.8337 42.6792L68.3658 42.672L72.6037 38.0088Z" fill="white"/>
<circle cx="73.445" cy="61.5561" r="7.55568" fill="white"/>
</g>
<defs>
<clipPath id="clip0_1_19">
<rect width="268" height="180" fill="white"/>
</clipPath>
</defs>
</svg>
